PathFileType	4	(X/Y/Z)	C:/Users/beibeiliu/ov580/test_trc\sequence.19_training_dense_left.trc
DataRate	CameraRate	NumFrames	NumMarkers	Units	OrigDataRate	OrigDataStartFrame	OrigNumFrames
120	120	18	19	mm	120	57	85
Frame#	Time	ThumbCMC			ThumbMCP			ThumbIP			ThumbTip			IndexMCP			IndexPIP			IndexTip			MiddleMCP			MiddlePIP			MiddleTip			RingMCP			RingPIP			RingTip			PinkyMCP			PinkyPIP			PinkyTip			BackHand1			BackHand2			BackHand3	
		X0	Y0	Z0	X1	Y1	Z1	X2	Y2	Z2	X3	Y3	Z3	X4	Y4	Z4	X5	Y5	Z5	X6	Y6	Z6	X7	Y7	Z7	X8	Y8	Z8	X9	Y9	Z9	X10	Y10	Z10	X11	Y11	Z11	X12	Y12	Z12	X13	Y13	Z13	X14	Y14	Z14	X15	Y15	Z15	X16	Y16	Z16	X17	Y17	Z17	X18	Y18	Z18	
56	0.466667	-164.75	45.4188	31.1058	-135.974	27.529	38.7061	-131.321	0.991109	39.5932	-136.278	-20.8111	43.7106	-133.338	7.28183	-8.10957	-112.012	-3.95822	-7.24363	-92.7876	-13.8186	-3.02853	-137.404	-14.8193	-0.0811964	-116.726	-21.9574	21.4298	-125.236	-5.90602	47.5436	-152.283	-22.4062	11.2936	-128.659	-29.0223	31.4518	-126.96	-11.2309	51.1856	-173.51	-27.5008	16.6457	-154.026	-41.8644	14.9866	-132.704	-41.1117	32.9669	-192.262	0.521224	12.0696	-213.145	19.4528	24.0892	-184.507	32.5092	9.13294	
57	0.475	-183.656	47.5025	30.2524	-150.47	45.5942	33.9387	-135.513	21.7104	36.5046	-132.671	1.69801	43.3861	-133.772	18.5182	-7.49823	-111.579	12.662	-6.61489	-88.1774	12.384	-2.17377	-132.839	-3.60056	1.64774	-109.454	-2.31271	16.8906	-119.336	15.0337	46.9183	-137.322	-13.4255	15.5648	-116.962	-6.99675	32.3113	-120.51	7.87898	51.3708	-158.153	-27.0568	23.2937	-132.543	-32.6374	25.3461	-114.241	-24.2364	36.2389	-189.338	-5.10607	19.0994	-211.822	7.9545	24.6438	-195.723	23.8985	10.1291	
58	0.483333	-193.637	52.2896	27.9854	-162.085	59.9046	32.8912	-139.285	53.3821	35.8144	-123.036	32.8627	43.7784	-141.559	33.3339	-10.0661	-117.503	36.646	-12.0258	-90.4954	43.9494	-8.42102	-132.189	14.3623	0.619348	-107.868	28.0779	17.4526	-124.064	40.9236	41.4244	-133.148	2.99634	15.4029	-114.316	18.5129	32.5787	-126.138	32.6072	48.4712	-143.589	-15.2335	25.5115	-121.605	-11.879	23.1942	-100.468	0.224713	31.0178	-180.093	-0.690326	17.6121	-206.689	-0.4106	30.2177	-195.899	19.4301	10.4062	
59	0.491667	-198.22	54.3709	27.7339	-169.885	72.1745	29.8972	-145.937	74.6758	30.5078	-124.124	62.6961	37.008	-143.881	53.2238	-18.1874	-123.813	66.6106	-22.5237	-106.028	74.736	-20.1282	-126.545	37.6427	-4.41738	-111.435	58.0496	7.83801	-130.718	62.1134	34.6535	-122.763	27.8974	11.7025	-115.367	50.6784	26.2741	-135.592	56.9432	45.3208	-130.762	6.35428	24.8022	-105.573	13.2645	19.6794	-92.0417	23.8253	18.7007	-169.987	2.65945	22.6207	-191.724	-1.78819	32.5679	-192.861	23.4491	9.65752	
60	0.5	-194.93	55.9358	24.6934	-173.664	80.7227	21.8169	-147.581	92.728	17.7274	-126.775	87.5539	22.2503	-150.005	61.2435	-23.1137	-132.935	77.8292	-33.6172	-114.866	98.3004	-37.8424	-128.868	59.6453	-15.0112	-116.636	82.228	-3.29058	-141.002	85.0018	22.8136	-117.608	50.4129	2.54902	-113.461	75.1747	15.9164	-134.267	79.0208	31.0494	-116.663	30.4439	16.0849	-97.6701	37.1992	10.2454	-81.8959	44.4942	2.25215	-152.471	18.2421	16.4845	-174.104	7.06104	34.5165	-178.119	24.6636	12.955	
61	0.508333	-187.897	55.4309	20.0633	-174.624	84.5569	11.5724	-155.042	98.7921	4.33555	-127.449	102.171	4.61806	-148.127	59.6822	-31.9295	-136.84	77.8645	-48.1364	-129.949	99.0315	-58.7366	-127.119	66.7759	-25.7728	-122.235	93.1394	-15.2524	-142.617	90.8518	9.20654	-112.813	60.1786	-6.97729	-115.245	88.319	-2.35099	-133.071	89.1516	20.1698	-103.758	43.2756	7.05424	-91.4606	52.5922	-5.26663	-81.0511	61.3662	-16.9363	-137.752	25.8616	14.2285	-153.979	15.157	33.2018	-171.98	24.8498	10.2833	
62	0.516667	-183.828	49.0648	18.7325	-174.096	76.4605	-1.49725	-160.453	88.5507	-11.4142	-133.569	95.1335	-17.4883	-152.048	45.8861	-42.7482	-146.523	58.2586	-60.9206	-138.369	79.5907	-76.4608	-131.78	54.4613	-36.8432	-132.165	85.2859	-36.1401	-143.636	86.2424	-7.00672	-114.756	56.9498	-22.9457	-120.307	82.6547	-25.3465	-136.272	88.6899	0.120837	-104.264	43.7504	-4.7906	-93.4787	50.6944	-20.6059	-83.3658	56.2961	-37.4332	-135.483	22.7628	14.773	-146.041	17.7243	34.6663	-162.893	20.7682	12.6299	
63	0.525	-183.685	39.6664	18.0733	-181.287	60.6549	-7.70198	-168.668	69.7501	-25.1786	-145.483	76.6522	-35.4805	-161.313	21.9309	-42.2099	-157.573	31.0084	-66.8642	-155.792	45.8264	-86.5699	-139.226	33.1572	-43.7827	-142.009	59.5896	-51.9666	-155.139	69.5715	-23.3785	-124.156	36.1444	-30.0384	-130.158	62.4507	-41.711	-141.169	76.7527	-21.5631	-112.712	31.4946	-11.6622	-101.849	34.7838	-30.3347	-98.995	35.9483	-51.9829	-136.67	16.8779	13.879	-138.625	14.8582	40.4958	-163.16	10.2906	15.6588	
64	0.533333	-186.655	28.9611	20.3982	-189.724	46.0469	-6.98902	-178.679	49.2278	-34.4724	-158.819	52.9089	-44.1128	-170.804	-1.46716	-37.0129	-170.274	2.39789	-62.3939	-172.147	10.4368	-80.9397	-153.027	6.23044	-40.6949	-153.421	33.9052	-54.5427	-161.921	50.2475	-28.4021	-131.77	12.8974	-32.4137	-138.29	33.9884	-49.1164	-151.184	55.3258	-34.7311	-121.721	13.8651	-14.4249	-113.734	11.4897	-33.4969	-107.337	10.0305	-50.7968	-140.2	6.30417	18.5025	-144.281	12.0833	42.8723	-168.816	3.80311	24.4793	
65	0.541667	-193.679	23.733	24.7423	-194.388	30.1346	-9.20162	-188.145	32.0139	-28.0684	-170.467	28.5127	-46.9901	-185.266	-20.1358	-19.7789	-182.621	-22.3664	-48.7089	-182.893	-18.3094	-73.546	-165.897	-16.4934	-30.6868	-161.762	6.14148	-50.4827	-165.078	29.9342	-32.3445	-148.38	-10.5707	-25.4686	-150.177	7.29844	-46.3891	-155.713	32.3617	-40.4598	-131.275	-8.00845	-10.7971	-123.23	-12.0479	-27.0559	-126.044	-20.4163	-46.0094	-149.567	-2.86217	27.5671	-148.644	3.40329	48.0625	-174.678	-3.67395	35.9008	
66	0.55	-201.012	24.1856	27.9577	-203.501	26.8223	-4.04989	-196.637	18.94	-26.9952	-181.595	10.827	-46.4364	-202.576	-28.8033	-6.14209	-202.598	-38.181	-32.4694	-202.154	-37.0747	-58.4849	-180.118	-31.7681	-18.9673	-179.597	-17.9298	-43.5778	-175.032	14.0324	-27.9616	-162.073	-28.1464	-14.776	-159.854	-16.3743	-39.601	-164.542	8.51593	-41.1338	-143.797	-23.9699	2.97515	-142.881	-33.9767	-16.0689	-139.187	-42.056	-34.7773	-162.405	-11.801	36.8125	-158.832	0.910643	53.7251	-187.014	-4.57631	45.0562	
67	0.558333	-205.289	32.1718	30.2813	-205.491	32.6619	-1.51782	-204.513	22.0448	-25.8461	-188.954	5.87373	-39.9386	-217.812	-22.8779	0.659531	-223.808	-32.2547	-22.8528	-225.175	-34.1445	-48.18	-198.832	-29.5551	-10.3746	-193.224	-17.5511	-37.1101	-182.264	9.67429	-26.0878	-181.449	-31.9203	-7.2225	-178.888	-20.4384	-34.1885	-175.614	4.70012	-35.9016	-162.547	-34.3098	5.34934	-163.756	-44.7747	-12.503	-168.475	-50.3129	-33.0105	-174.858	-13.4281	41.6974	-169.741	1.46974	56.39	-197.135	2.31299	48.3506	
68	0.566667	-204.926	45.4279	32.2302	-207.197	46.1138	-1.12947	-207.65	34.632	-20.3571	-199.936	16.8872	-40.245	-239.153	-3.94738	1.36283	-247.324	-12.6051	-23.9252	-245.919	-14.0101	-45.6935	-221.287	-16.7353	-8.70203	-212.466	-7.89058	-34.5502	-195.688	17.8998	-24.7191	-205.925	-22.5115	-3.88227	-200.946	-14.5044	-31.3484	-186.869	6.7926	-34.4211	-185.422	-31.9468	8.06508	-195.172	-40.2305	-10.1205	-202.792	-42.8316	-28.5863	-192.514	-8.89592	39.4218	-179.125	1.97675	59.2386	-205.772	12.3516	48.2867	
69	0.575	-202.589	52.6874	34.2055	-207.674	55.5625	-0.644632	-211.763	47.8702	-22.6456	-208.013	30.7567	-40.5421	-254.967	23.9293	2.01579	-263.75	17.601	-23.1946	-264.732	16.9096	-45.4837	-239.672	3.69918	-12.7273	-228.196	10.8449	-35.8886	-203.016	30.1758	-22.1232	-224.971	-9.69691	-7.49109	-219.567	-2.0326	-32.6188	-201.491	19.4749	-32.296	-212.322	-22.7038	6.11652	-224.151	-26.279	-10.2665	-231.418	-29.8222	-26.7673	-206.209	-0.869396	41.1834	-189.041	6.80759	59.1312	-214.404	24.4689	48.9827	
70	0.583333	-201.649	60.8037	33.5997	-203.385	61.2136	2.16325	-209.313	57.9162	-22.8801	-212.919	40.1211	-41.3202	-259.958	48.2652	1.9631	-270.201	49.7087	-17.6321	-273.102	47.4618	-47.3159	-251.077	28.9002	-11.1386	-237.924	30.6644	-36.8343	-210.2	41.9184	-25.1732	-241.73	7.66545	-9.22373	-230.615	19.8613	-35.1829	-204.458	30.2688	-30.2021	-234.434	-9.68836	2.23453	-243.629	-12.3953	-12.2775	-256.226	-6.20171	-32.4243	-223.188	6.93257	36.607	-204.701	13.9234	56.3934	-221.103	34.8025	48.5662	
71	0.591667	-198.872	63.4692	31.6484	-192.914	67.6232	2.02645	-202.521	62.5302	-21.5413	-208.904	49.2634	-43.3896	-254.017	65.8868	-1.57649	-262.853	73.628	-24.3345	-265.454	76.3901	-49.2276	-252.722	49.3881	-12.7191	-237.243	52.302	-38.3346	-206.105	48.506	-23.6913	-249.265	30.7567	-14.5735	-238.306	34.3174	-35.8168	-206.169	36.9351	-31.9697	-244.164	8.31746	1.44867	-257.733	12.2208	-16.9282	-268.983	18.731	-35.4564	-234.279	20.3984	32.7913	-217.228	17.2961	53.9869	-224.869	47.9365	46.7778	
72	0.6	-185.496	64.4429	33.4114	-181.993	66.9912	0.417645	-188.252	67.407	-24.7443	-201.947	53.7972	-42.3263	-238.845	85.7738	-5.65282	-244.88	92.6092	-27.4694	-243.759	98.4336	-50.3346	-243.293	67.0603	-19.9644	-224.916	61.0291	-42.1663	-200.64	50.5463	-26.9421	-245.833	48.2766	-17.927	-229.449	50.2429	-40.7261	-201.546	44.6173	-33.8076	-247.255	31.2909	-2.36461	-258.853	34.2116	-20.122	-268.323	40.2199	-39.1801	-236.156	34.0168	32.3719	-220.536	28.0604	54.4769	-219.456	55.7908	45.0064	
73	0.608333	-174.126	63.6128	31.4539	-171	64.3949	-2.5127	-176.192	63.2104	-28.8539	-185.937	52.9835	-46.4136	-211.325	98.222	-12.1989	-212.914	106.836	-37.2726	-212.578	104.915	-63.1196	-221.124	82.5248	-24.6096	-209.119	70.9687	-47.7294	-188.009	50.8201	-26.9676	-230.778	65.5588	-21.6863	-212.787	58.6028	-44.5863	-191.601	43.1492	-34.2832	-242.371	50.7793	-10.423	-250.591	53.5858	-27.5915	-251.984	64.9818	-47.1	-227.5	55.2145	25.1004	-222.576	41.7323	45.9131	-208.825	68.5843	37.9238	
